<svg xmlns="http://www.w3.org/2000/svg" xmlns:xlink="http://www.w3.org/1999/xlink" contentStyleType="text/css" height="117px" preserveAspectRatio="none" style="width:168px;height:117px;background:#FFFFFF;" version="1.1" viewBox="0 0 168 117" width="168px" zoomAndPan="magnify"><defs/><g><!--class User--><g id="elem_User"><rect fill="#F1F1F1" height="96.8906" id="User" rx="2.5" ry="2.5" style="stroke:#181818;stroke-width:0.5;" width="147.1875" x="7" y="7"/><ellipse cx="60.3887" cy="23" fill="#ADD1B2" rx="11" ry="11" style="stroke:#181818;stroke-width:1.0;"/><path d="M63.3574,28.6406 Q62.7793,28.9375 62.1387,29.0781 Q61.498,29.2344 60.7949,29.2344 Q58.2949,29.2344 56.9668,27.5938 Q55.6543,25.9375 55.6543,22.8125 Q55.6543,19.6875 56.9668,18.0313 Q58.2949,16.375 60.7949,16.375 Q61.498,16.375 62.1387,16.5313 Q62.7949,16.6875 63.3574,16.9844 L63.3574,19.7031 Q62.7324,19.125 62.1387,18.8594 Q61.5449,18.5781 60.9199,18.5781 Q59.5762,18.5781 58.8887,19.6563 Q58.2012,20.7188 58.2012,22.8125 Q58.2012,24.9063 58.8887,25.9844 Q59.5762,27.0469 60.9199,27.0469 Q61.5449,27.0469 62.1387,26.7813 Q62.7324,26.5 63.3574,25.9219 L63.3574,28.6406 Z " fill="#000000"/><text fill="#000000" font-family="sans-serif" font-size="14" lengthAdjust="spacing" textLength="31.9102" x="80.8887" y="27.8467">User</text><line style="stroke:#181818;stroke-width:0.5;" x1="8" x2="153.1875" y1="39" y2="39"/><ellipse cx="18" cy="52.6484" fill="none" rx="3" ry="3" style="stroke:#038048;stroke-width:1.0;"/><text fill="#000000" font-family="sans-serif" font-size="14" lengthAdjust="spacing" textLength="121.1875" x="27" y="55.9951">username: String</text><ellipse cx="18" cy="68.9453" fill="none" rx="3" ry="3" style="stroke:#038048;stroke-width:1.0;"/><text fill="#000000" font-family="sans-serif" font-size="14" lengthAdjust="spacing" textLength="90.6514" x="27" y="72.292">name: String</text><ellipse cx="18" cy="85.2422" fill="none" rx="3" ry="3" style="stroke:#038048;stroke-width:1.0;"/><text fill="#000000" font-family="sans-serif" font-size="14" lengthAdjust="spacing" textLength="117.6602" x="27" y="88.5889">password: String</text><line style="stroke:#181818;stroke-width:0.5;" x1="8" x2="153.1875" y1="95.8906" y2="95.8906"/></g><!--SRC=[2orEBLAmKj0k1T9vYRcfLWh19KMPUUbSeL09h885YSN5vVb5AJ090000]--></g></svg>